<?xml version="1.0" standalone="no"?>
<!DOCTYPE svg PUBLIC "-//W3C//DTD SVG 20010904//EN"
 "http://www.w3.org/TR/2001/REC-SVG-20010904/DTD/svg10.dtd">
<svg version="1.0" xmlns="http://www.w3.org/2000/svg"
 width="512.000000pt" height="512.000000pt" viewBox="0 0 512.000000 512.000000"
 preserveAspectRatio="xMidYMid meet">

<g transform="translate(0.000000,512.000000) scale(0.100000,-0.100000)"
fill="#000000" stroke="none">
<path fill="#0C8FD2" d="M613 5109 c-338 -30 -523 -187 -590 -499 -17 -81 -18 -186 -18 -2050
0 -1864 1 -1969 18 -2050 59 -276 209 -426 484 -488 73 -16 211 -17 2053 -17
1842 0 1980 1 2053 17 275 62 425 212 484 488 17 81 18 186 18 2050 0 1864 -1
1969 -18 2050 -56 261 -195 412 -434 474 -33 9 -111 20 -174 26 -138 12 -3738
11 -3876 -1z m2673 -612 c127 -33 211 -64 324 -122 240 -124 484 -364 648
-637 249 -415 400 -939 419 -1458 17 -460 -125 -832 -432 -1135 -122 -121
-250 -210 -428 -300 -292 -147 -596 -223 -985 -245 -618 -35 -1224 137 -1686
478 -130 96 -342 310 -428 432 -131 184 -227 414 -264 630 -25 145 -15 391 21
529 105 402 376 801 785 1156 421 365 941 615 1432 690 64 10 154 13 293 11
174 -4 213 -7 301 -29z"/>
<path fill="#1264A3" d="M3145 3225 c-38 -9 -112 -36 -163 -61 -134 -66 -224 -156 -291 -296
-66 -137 -84 -220 -84 -383 1 -197 40 -338 131 -472 89 -132 240 -233 397
-268 115 -26 294 -17 400 19 248 85 410 287 456 570 17 106 7 300 -21 396 -70
242 -247 424 -475 485 -86 24 -263 28 -350 10z m290 -276 c113 -42 207 -162
241 -305 23 -99 15 -286 -15 -374 -79 -231 -303 -338 -512 -244 -183 82 -278
337 -223 601 34 166 131 289 258 329 66 20 186 17 251 -7z"/>
<path fill="#1264A3" d="M1120 2480 l0 -730 145 0 145 0 0 315 0 315 330 0 330 0 0 -315 0
-315 150 0 150 0 0 730 0 730 -150 0 -150 0 0 -285 0 -285 -330 0 -330 0 0
285 0 285 -145 0 -145 0 0 -730z"/>
</g>
</svg>
